<svg width="222" height="68" viewBox="0 0 222 68" fill="none" xmlns="http://www.w3.org/2000/svg">
<path d="M67.1299 34.1581V20.7321L72.6331 17.5535H84.6359L90.1392 20.7321V27.0419H83.4973V23.2465H73.7717V31.1693H84.6359L90.1392 34.3479V48.0586L84.6359 51.2372H72.1587L66.6555 48.0586V41.7488H73.2973V45.5442H83.4973V37.3367H72.6331L67.1299 34.1581ZM98.6917 38.4753V29.4614H107.706V38.4753H98.6917ZM122.881 29.5088V51H116.24V17.7907H122.455L136.782 39.2819H136.877V17.7907H143.519V51H137.304L122.976 29.5088H122.881ZM179.533 51V29.0819H179.438L171.942 51H165.632L158.089 28.7972H157.994V51H151.589V17.7907H160.414L168.763 42.2233H168.858L177.161 17.7907H185.937V51H179.533ZM193.981 34.1581V20.7321L199.485 17.5535H211.487L216.991 20.7321V27.0419H210.349V23.2465H200.623V31.1693H211.487L216.991 34.3479V48.0586L211.487 51.2372H199.01L193.507 48.0586V41.7488H200.149V45.5442H210.349V37.3367H199.485L193.981 34.1581Z" fill="white"/>
<circle cx="26.1123" cy="35.3093" r="3.16279" fill="white"/>
<path d="M21.0988 31.4821C16.589 23.1297 15.624 17.7074 14.4455 12.8408C2.69903 21.0719 2.87789 32.5503 3.80267 38.6436C5.34584 38.912 7.12944 40.4328 7.82834 41.1597L20.4473 36.248C20.5144 34.5707 20.9246 32.1081 21.0988 31.4821Z" fill="white"/>
<path d="M24.2274 29.5859C19.8472 21.5864 18.5405 15.7965 17.6179 11.2118C27.0494 6.75324 36.9585 11.4145 39.6982 14.238C38.4905 17.3915 31.4791 25.7839 28.1244 29.5859C26.5812 29.1162 24.5629 29.3902 24.2274 29.5859Z" fill="white"/>
<circle cx="3.16279" cy="44.1931" r="3.16279" fill="white"/>
<circle cx="14.8843" cy="5.57344" r="3.16279" fill="white"/>
<circle cx="44.1266" cy="11.0026" r="3.16279" fill="white"/>
<circle cx="46.2241" cy="52.0896" r="3.16279" fill="white"/>
<path d="M31.4328 38.1656C32.768 35.6731 31.9891 32.4456 31.4328 31.7038L43.7688 16.7849C53.2047 25.6867 49.5539 40.4911 46.5125 46.5369C44.8508 46.5369 43.6115 47.219 42.8651 47.6298L42.8257 47.6515L31.4328 38.1656Z" fill="white"/>
<path d="M28.9357 40.9638C25.3346 42.1641 22.5943 40.3763 22.1972 39.6122C20.3278 40.7694 12.6649 43.5809 9.06705 44.842L8.28815 47.0674C9.06705 48.6804 12.9393 53.6325 22.1972 55.4128C31.455 57.1932 37.831 52.8153 40.1677 50.7382C36.3951 47.6516 31.9029 44.2278 28.9357 40.9638Z" fill="white"/>
</svg>
